<svg xmlns="http://www.w3.org/2000/svg" width="320" height="320" fill="none" viewBox="0 0 320 320"><path fill="#000" d="M293.333 26.666H280V39.9993H293.333V26.666Z"/><path fill="#000" d="M306.667 40V280H293.333V80H26.6666V280H13.3333V40H26.6666V66.6667H293.333V40H306.667Z"/><path fill="#FFB4F9" d="M280 173.334H266.667V200.001H280V173.334Z"/><path fill="#FFB4F9" d="M266.667 40H253.333V53.3333H266.667V40Z"/><path fill="#FFB4F9" d="M253.333 226.666H240V239.999H253.333V226.666Z"/><path fill="#FFB4F9" d="M240 240V253.333H226.667V266.667H200V253.333H213.333V240H240Z"/><path fill="#EB11D9" d="M266.667 159.999V213.333H253.333V226.666H240V239.999H226.667V213.333H240V199.999H253.333V173.333H240V146.666H253.333V159.999H266.667Z"/><path fill="#FFB4F9" d="M240 40H200V53.3333H240V40Z"/><path fill="#6C2366" d="M240 26.666H213.333V39.9993H240V26.666Z"/><path fill="#FFB4F9" d="M253.333 133.333V146.666H240V159.999H226.667V133.333H213.333V119.999H200V106.666H226.667V119.999H240V133.333H253.333Z"/><path fill="#6C2366" d="M280 39.9993V26.666H240V53.3327H200V39.9993H186.667V53.3327H133.333V66.666H293.333V39.9993H280ZM266.667 53.3327H253.333V39.9993H266.667V53.3327Z"/><path fill="#EB11D9" d="M186.667 120H173.333V160H186.667V120Z"/><path fill="#FFB4F9" d="M186.667 40H173.333V53.3333H186.667V40Z"/><path fill="#EB11D9" d="M173.333 200H160V213.333H173.333V200Z"/><path fill="#EB11D9" d="M160 226.666H146.667V266.666H160V226.666Z"/><path fill="#FFB4F9" d="M186.667 93.334V120.001H173.333V200.001H160V226.667H146.667V280.001H133.333V213.334H146.667V173.334H160V106.667H173.333V93.334H186.667Z"/><path fill="#FFB4F9" d="M160 40H133.333V53.3333H160V40Z"/><path fill="#EB11D9" d="M120 253.334H93.3334V266.667H120V253.334Z"/><path fill="#EB11D9" d="M280 80V106.667H266.667V133.333H240V120H226.667V106.667H200V120H213.333V146.667H200V173.333H186.667V186.667H173.333V160H186.667V93.3333H173.333V106.667H160V173.333H146.667V213.333H120V240H93.3334V213.333H80V200H66.6667V173.333H80V160H93.3334V133.333H106.667V120H120V106.667H93.3334V120H80V133.333H66.6667V160H53.3334V173.333H40V200H53.3334V213.333H66.6667V240H80V253.333H93.3334V266.667H80V280H66.6667V293.333H40V280H26.6667V80H280Z"/><path fill="#FFB4F9" d="M120 106.666V119.999H106.667V133.333H93.3333V159.999H80V173.333H66.6667V199.999H80V213.333H53.3333V199.999H40V173.333H53.3333V159.999H66.6667V133.333H80V119.999H93.3333V106.666H120Z"/><path fill="#FFB4F9" d="M120 40H106.667V53.3333H120V40Z"/><path fill="#FFB4F9" d="M106.667 240H93.3334V253.333H106.667V240Z"/><path fill="#EB11D9" d="M93.3333 226.667V253.334H80V240.001H66.6666V213.334H80V226.667H93.3333Z"/><path fill="#FFB4F9" d="M93.3333 213.334H80V226.667H93.3333V213.334Z"/><path fill="#6C2366" d="M293.333 80V280H280V293.333H66.6666V280H80V266.667H120V253.333H106.667V240H120V213.333H133.333V280H146.667V266.667H160V213.333H173.333V186.667H186.667V173.333H200V146.667H213.333V133.333H226.667V160H240V173.333H253.333V200H240V213.333H226.667V240H213.333V253.333H200V266.667H226.667V253.333H240V240H253.333V213.333H266.667V200H280V173.333H266.667V160H253.333V133.333H266.667V106.667H280V80H293.333Z"/><path fill="#000" d="M280 293.334H40V306.667H280V293.334Z"/><path fill="#000" d="M293.333 280H280V293.333H293.333V280Z"/><path fill="#000" d="M40 280H26.6667V293.333H40V280Z"/><path fill="#EB11D9" d="M40 26.666V39.9993H26.6667V66.666H133.333V39.9993H160V53.3327H173.333V39.9993H213.333V26.666H40ZM93.3334 53.3327H53.3334V39.9993H93.3334V53.3327ZM120 53.3327H106.667V39.9993H120V53.3327Z"/><path fill="#000" d="M280 13.334H40V26.6673H280V13.334Z"/><path fill="#FFB4F9" d="M93.3334 40H53.3334V53.3333H93.3334V40Z"/><path fill="#000" d="M40 26.666H26.6667V39.9993H40V26.666Z"/></svg>